<svg xmlns="http://www.w3.org/2000/svg" xmlns:xlink="http://www.w3.org/1999/xlink" fill="none" version="1.1" width="36.68798828125" height="36.5" viewBox="0 0 36.68798828125 36.5"><defs><linearGradient x1="0.5811794400215149" y1="0.004534528125077486" x2="0.5811794400215149" y2="1" id="master_svg0_114_9744"><stop offset="0%" stop-color="#00AEFF" stop-opacity="0"/><stop offset="100%" stop-color="#005379" stop-opacity="1"/></linearGradient><linearGradient x1="0.5" y1="0" x2="0.5" y2="1" id="master_svg1_114_9158"><stop offset="0%" stop-color="#9CD8FF" stop-opacity="1"/><stop offset="100%" stop-color="#00AEFF" stop-opacity="1"/></linearGradient></defs><g><path d="M0 0C0 0 0 0 0 0L36.68818664550781 0C36.68818664550781 0 36.68818664550781 0 36.68818664550781 0L36.68818664550781 36.500003814697266C36.68818664550781 36.500003814697266 36.68818664550781 36.500003814697266 36.68818664550781 36.500003814697266L0 36.500003814697266C0 36.500003814697266 0 36.500003814697266 0 36.500003814697266Z" fill="url(#master_svg0_114_9744)" fill-opacity="1"/><path d="M1.0000045,2.0000045L0,2.0000091L0,0L1.0000045,0.000004529953L35.688183,0.000004529953L36.688187,0L36.688187,2.0000091L35.688183,2.0000045L1.0000045,2.0000045Z" fill-rule="evenodd" fill="#0A97FF" fill-opacity="1"/><path d="M6.83984375,14.93216037625L6.83984375,20.23616025625C6.83984375,21.35216045625,7.15184367,22.20416065625,7.77584374,22.80416015625C8.37584365,23.380160356250002,9.23984385,23.66816045625,10.37984375,23.66816045625C11.50784345,23.66816045625,12.371843850000001,23.36816025625,12.98384385,22.792160056249998C13.59584375,22.20416065625,13.907843549999999,21.35216045625,13.907843549999999,20.23616025625L13.907843549999999,14.93216037625L12.59984355,14.93216037625L12.59984355,20.26016045625C12.59984355,21.02816005625,12.41984365,21.59216025625,12.07184365,21.96415995625C11.71184345,22.33616065625,11.147843850000001,22.52816005625,10.37984375,22.52816005625C9.59984395,22.52816005625,9.03584385,22.33616065625,8.67584385,21.96415995625C8.315843749999999,21.59216025625,8.14784375,21.02816005625,8.14784375,20.26016045625L8.14784375,14.93216037625L6.83984375,14.93216037625ZM18.587843749999998,14.76416015625C17.67584375,14.76416015625,16.91984375,14.96815967625,16.319843249999998,15.37616062625C15.68384365,15.80816025625,15.37184335,16.39616015625,15.37184335,17.152160156249998C15.37184335,17.89616015625,15.69584365,18.47216035625,16.35584355,18.86816025625C16.619843449999998,19.01216025625,17.26784275,19.24015995625,18.32384375,19.57616045625C19.271843750000002,19.86416055625,19.835843750000002,20.05615995625,20.027843750000002,20.15216065625C20.56784475,20.42815975625,20.843843749999998,20.80016045625,20.843843749999998,21.28015995625C20.843843749999998,21.66415975625,20.651843749999998,21.96415995625,20.26784275,22.18016055625C19.88384475,22.396160156249998,19.36784375,22.51616005625,18.719843750000003,22.51616005625C17.99984375,22.51616005625,17.471843749999998,22.38416005625,17.12384375,22.12016005625C16.73984335,21.83215995625,16.49984355,21.34016035625,16.40384385,20.66816045625L15.10784335,20.66816045625C15.17984395,21.74816035625,15.56384375,22.54016015625,16.271843949999997,23.044159856249998C16.85984375,23.45215985625,17.67584375,23.66816045625,18.719843750000003,23.66816045625C19.79984375,23.66816045625,20.63984375,23.45215985625,21.23984375,23.02016065625C21.83984375,22.57616045625,22.13984275,21.976160056250002,22.13984275,21.208160356249998C22.13984275,20.41616055625,21.76784275,19.80416015625,21.035843749999998,19.36016085625C20.69984475,19.15616035625,19.94384375,18.880160356250002,18.791843749999998,18.52016065625C17.98784375,18.28015995625,17.49584375,18.10016015625,17.30384375,17.99216035625C16.87184375,17.76416015625,16.66784385,17.46415995625,16.66784385,17.08016015625C16.66784385,16.64815995625,16.847842749999998,16.33616015625,17.219843750000003,16.14416025625C17.51984375,15.97616005625,17.951843750000002,15.89215995625,18.51584475,15.89215995625C19.16384275,15.89215995625,19.643843750000002,16.01216025625,19.97984275,16.26416015625C20.31584375,16.50415995625,20.53184275,16.91216035625,20.651843749999998,17.46415995625L21.94784375,17.46415995625C21.86384375,16.52816005625,21.527843750000002,15.84416005625,20.92784275,15.40015983625C20.36384375,14.96815967625,19.583842750000002,14.76416015625,18.587843749999998,14.76416015625ZM23.35184475,14.93216037625L23.35184475,23.50016025625L24.65984575,23.50016025625L24.65984575,20.16415975625L26.87984475,20.16415975625C28.93184475,20.16415975625,29.96384475,19.28816035625,29.96384475,17.53615995625C29.96384475,15.79616025625,28.94384375,14.93216037625,26.90384475,14.93216037625L23.35184475,14.93216037625ZM24.65984575,16.04816005625L26.79584475,16.04816005625C27.43184475,16.04816005625,27.89984475,16.16815995625,28.19984475,16.40816025625C28.49984375,16.62416025625,28.65584575,17.00816015625,28.65584575,17.53615995625C28.65584575,18.06416035625,28.49984375,18.44816015625,28.21184575,18.68815995625C27.91184475,18.92815975625,27.44384375,19.04816055625,26.79584475,19.04816055625L24.65984575,19.04816055625L24.65984575,16.04816005625Z" fill="url(#master_svg1_114_9158)" fill-opacity="1"/></g></svg>