<svg xmlns="http://www.w3.org/2000/svg" xmlns:xlink="http://www.w3.org/1999/xlink" fill="none" version="1.1" width="44.7998046875" height="46.557373046875" viewBox="0 0 44.7998046875 46.557373046875"><defs><linearGradient x1="1" y1="0.5" x2="0" y2="0.5" id="master_svg0_2_2354"><stop offset="0%" stop-color="#06396A" stop-opacity="1"/><stop offset="50.387829542160034%" stop-color="#ACE8FF" stop-opacity="1"/><stop offset="100%" stop-color="#06396A" stop-opacity="1"/></linearGradient><linearGradient x1="0.5" y1="0.04090450331568718" x2="0.5" y2="1" id="master_svg1_28_15358"><stop offset="0%" stop-color="#00AEFF" stop-opacity="0"/><stop offset="100%" stop-color="#00AEFF" stop-opacity="0.6010298132896423"/></linearGradient><linearGradient x1="0.5" y1="0" x2="0.5" y2="1" id="master_svg2_28_15360"><stop offset="0%" stop-color="#4DF2FF" stop-opacity="0"/><stop offset="100%" stop-color="#4DF2FF" stop-opacity="1"/></linearGradient><linearGradient x1="0.5" y1="0" x2="0.5" y2="1" id="master_svg3_28_15355"><stop offset="0%" stop-color="#00AEFF" stop-opacity="0"/><stop offset="99.99982714653015%" stop-color="#00AEFF" stop-opacity="1"/></linearGradient><linearGradient x1="0.5" y1="0" x2="0.5" y2="1" id="master_svg4_28_15355"><stop offset="0%" stop-color="#00AEFF" stop-opacity="0"/><stop offset="99.99982714653015%" stop-color="#00AEFF" stop-opacity="1"/></linearGradient><linearGradient x1="0.5" y1="0" x2="0.5" y2="1" id="master_svg5_2_2394"><stop offset="0%" stop-color="#7ECDFA" stop-opacity="1"/><stop offset="100%" stop-color="#7FCDFA" stop-opacity="1"/></linearGradient><clipPath id="master_svg6_28_15792"><rect x="13" y="7" width="18" height="18" rx="0"/></clipPath><filter id="master_svg7_28_15793" filterUnits="objectBoundingBox" color-interpolation-filters="sRGB" x="-0.26666667726304794" y="-0.17777778704961142" width="1.5333333545260959" height="1.5333333545260959"><feFlood flood-opacity="0" result="BackgroundImageFix"/><feColorMatrix in="SourceAlpha" type="matrix" values="0 0 0 0 0 0 0 0 0 0 0 0 0 0 0 0 0 0 127 0"/><feOffset dy="1.600000023841858" dx="0"/><feGaussianBlur stdDeviation="1.2000000476837158"/><feColorMatrix type="matrix" values="0 0 0 0 0.14901961386203766 0 0 0 0 0.45098039507865906 0 0 0 0 0.6039215922355652 0 0 0 1 0"/><feBlend mode="normal" in2="BackgroundImageFix" result="effect1_dropShadow"/><feBlend mode="normal" in="SourceGraphic" in2="effect1_dropShadow" result="shape"/></filter><linearGradient x1="0.6294095516204834" y1="0.017037086188793182" x2="0.370590478181839" y2="0.9829629063606262" id="master_svg8_28_15575"><stop offset="0%" stop-color="#FEFFFF" stop-opacity="1"/><stop offset="100%" stop-color="#B0DFFF" stop-opacity="1"/></linearGradient></defs><path d="M0 42.39990234375C0 42.39990234375 0 42.39990234375 0 42.39990234375L44.79999923706055 42.39990234375C44.79999923706055 42.39990234375 44.79999923706055 42.39990234375 44.79999923706055 42.39990234375L44.79999923706055 46.557382583618164C44.79999923706055 46.557382583618164 44.79999923706055 46.557382583618164 44.79999923706055 46.557382583618164L0 46.557382583618164C0 46.557382583618164 0 46.557382583618164 0 46.557382583618164Z" fill="url(#master_svg0_2_2354)" fill-opacity="1"/><path d="M0.20000000298023224 42.59990234673023C0.20000000298023224 42.59990234673023 0.20000000298023224 42.59990234673023 0.20000000298023224 42.59990234673023L44.599999234080315 42.59990234673023C44.599999234080315 42.59990234673023 44.599999234080315 42.59990234673023 44.599999234080315 42.59990234673023L44.599999234080315 46.35738258063793C44.599999234080315 46.35738258063793 44.599999234080315 46.35738258063793 44.599999234080315 46.35738258063793L0.20000000298023224 46.35738258063793C0.20000000298023224 46.35738258063793 0.20000000298023224 46.35738258063793 0.20000000298023224 46.35738258063793Z" fill-opacity="0" stroke-opacity="1" stroke="#1F2A6A" fill="none" stroke-width="0.4000000059604645"/><path d="M4.0727272,27.023681640625L40.727276,27.023681640625L44.799999,42.822107640625L0,42.822107640625L4.0727272,27.023681640625Z" fill-rule="evenodd" fill="url(#master_svg1_28_15358)" fill-opacity="1"/><path d="M44.69688,42.422107640625L40.727276,27.023681640625L4.0727272,27.023681640625L0.1031172,42.422107640625L0,42.822107640625L44.799999,42.822107640625L44.69688,42.422107640625ZM0.51619488,42.422107640625L4.3826876,27.423681680625L40.417316,27.423681680625L44.283806,42.422107640625L0.51619488,42.422107640625Z" fill-rule="evenodd" fill="url(#master_svg2_28_15360)" fill-opacity="1"/><path d="M2.0361328125,9.56201171875L42.7634088125,9.56201171875L37.4688648125,35.75413871875C37.4688648125,36.45674671875,36.6889498125,37.11412571875,35.3323598125,37.67581171875L35.0870128125,37.77392971875C35.0032658125,37.80629571875,34.9175648125,37.838323718750004,34.8299488125,37.86999871875L34.5614018125,37.96395671875C34.4700048125,37.994916718750005,34.3767318125,38.02551671875,34.2816318125,38.05574371875L33.990876812500005,38.14529771875C33.9415188125,38.16003371875,33.8917098125,38.17467271875,33.8414628125,38.18921871875L33.5347078125,38.27530471875L33.5347078125,38.27530471875L33.217591812500004,38.359006718749995L33.217591812500004,38.359006718749995L32.8903678125,38.44025971875C32.7796348125,38.46692871875,32.6672568125,38.493177718750005,32.5532778125,38.51900071875L32.2065758125,38.59516871875L32.2065758125,38.59516871875L31.8505058125,38.66870471875C31.7903918125,38.68073871875,31.7299008125,38.69265771875,31.6690368125,38.70446571875L31.2993798125,38.77393171875L31.2993798125,38.77393171875L30.9209808125,38.840612718749995C30.8571988125,38.85149171875,30.7930618125,38.86224971875,30.7285788125,38.872888718750005L30.3375268125,38.93527171875L30.3375268125,38.93527171875L29.9383488125,38.994714718750004L29.9383488125,38.994714718750004L29.5312918125,39.05115171875L29.5312918125,39.05115171875L29.1166078125,39.104522718750005C29.0468678125,39.11315871875,28.9768278125,39.121667718750004,28.9064808125,39.130040718749996L28.4808158125,39.178699718749996L28.4808158125,39.178699718749996L28.0481468125,39.224139718749996C27.9754638125,39.23144371875,27.9024978125,39.23860571875,27.8292598125,39.24563371875L27.3865398125,39.28612671875C27.3122138125,39.292596718750005,27.2376228125,39.29892571875,27.1627698125,39.305114718750005L26.7105618125,39.340524718750004L26.7105618125,39.340524718750004L26.2523388125,39.37247071875L26.2523388125,39.37247071875L25.7883468125,39.40089271875L25.7883468125,39.40089271875L25.3188378125,39.42571971875L25.3188378125,39.42571971875L24.8440548125,39.44689771875L24.8440548125,39.44689771875L24.3642518125,39.46436071875L24.3642518125,39.46436071875L23.8796728125,39.47805571875C23.7985268125,39.48002071875,23.7171898125,39.481824718750005,23.6356718125,39.48346471875L23.1443958125,39.49138271875C23.0621628125,39.49237471875,22.9797568125,39.493203718749996,22.8971848125,39.49386971875L22.3997708125,39.49587071875L22.3997708125,39.49587071875L21.9023568125,39.49386971875C21.8197838125,39.493203718749996,21.7373788125,39.49237471875,21.6551478125,39.49138271875L21.1638698125,39.48346471875C21.0823518125,39.481824718750005,21.0010168125,39.48002071875,20.9198688125,39.47805571875L20.4352908125,39.46436071875L20.4352908125,39.46436071875L19.9554858125,39.44689771875L19.9554858125,39.44689771875L19.4807048125,39.42571971875L19.4807048125,39.42571971875L19.0111938125,39.40089271875L19.0111938125,39.40089271875L18.5472028125,39.37247071875L18.5472028125,39.37247071875L18.0889798125,39.340524718750004L18.0889798125,39.340524718750004L17.6367718125,39.305114718750005L17.6367718125,39.305114718750005L17.1908278125,39.26629971875C17.1170408125,39.25954971875,17.0435238125,39.25266071875,16.9702838125,39.24563371875L16.5342008125,39.20182571875C16.4620868125,39.194253718750005,16.3902598125,39.18654471875,16.3187258125,39.178699718749996L15.8930618125,39.130040718749996L15.8930618125,39.130040718749996L15.4746548125,39.078225718750005L15.4746548125,39.078225718750005L15.0637538125,39.02331371875L15.0637538125,39.02331371875L14.6606058125,38.965366718750005C14.5940738125,38.95545771875,14.5278758125,38.945424718750004,14.4620168125,38.93527171875L14.0709628125,38.872888718750005L14.0709628125,38.872888718750005L13.6882828125,38.80762671875C13.6252148125,38.79651271875,13.5625058125,38.78528171875,13.5001598125,38.77393171875L13.1305078125,38.70446571875C13.0696398125,38.69265771875,13.0091488125,38.68073871875,12.9490378125,38.66870471875L12.5929668125,38.59516871875L12.5929668125,38.59516871875L12.2462648125,38.51900071875C12.1892738125,38.50608871875,12.1326858125,38.493070718750005,12.0765028125,38.47994771875L11.7443142125,38.39994271875C11.6897745125,38.38639871875,11.6356506125,38.37275471875,11.5819492125,38.359006718749995L11.2648334125,38.27530471875L11.2648334125,38.27530471875L10.9580784125,38.18921871875C10.9078293125,38.17467271875,10.8580227125,38.16003371875,10.8086624125,38.14529771875L10.5179119125,38.05574371875C10.4228105125,38.02551671875,10.3295393125,37.994916718750005,10.2381391125,37.96395671875L9.9695954125,37.86999871875C9.8819799125,37.838323718750004,9.7962766125,37.80629571875,9.7125282125,37.77392971875L9.467184512500001,37.67581171875C8.1504927125,37.13064971875,7.3770552125,36.49533471875,7.3326974125,35.81601371875L7.3306785125,35.75413871875L2.0361328125,9.56201171875Z" fill-rule="evenodd" fill="url(#master_svg3_28_15355)" fill-opacity="1" style="opacity:0.5;"/><path d="M6.39990234375,12.800048828125L38.07666934375,12.800048828125L33.95869234375,33.171703828125004C33.95869234375,33.718177828125,33.35209034375,34.229472828125,32.29696434375,34.666337828124995L32.10614034375,34.742650828125C32.041004343750004,34.767825828125,31.97434634375,34.792735828125004,31.90620034375,34.817371828125005L31.69733234375,34.890449828125C31.62624334375,34.914531828125,31.55369934375,34.938329828125,31.47973234375,34.961839828125L31.25359134375,35.031491828125C31.21520034375,35.042953828125,31.17646234375,35.054341828125004,31.13738034375,35.065652828124996L30.89879234375,35.132611828125L30.89879234375,35.132611828125L30.65214734375,35.197711828125L30.65214734375,35.197711828125L30.39763834375,35.260907828125C30.31151434375,35.281650828124995,30.22410934375,35.302066828125,30.13545834375,35.322148828124995L29.86579934375,35.381393828125L29.86579934375,35.381393828125L29.58885734375,35.438586828125C29.54210434375,35.447946828125,29.49505434375,35.457217828124996,29.44771434375,35.466399828125L29.16020534375,35.520431828125L29.16020534375,35.520431828125L28.86589434375,35.572293828125C28.81628634375,35.580754828124995,28.76640134375,35.589124828125,28.71624734375,35.597398828125L28.41209434375,35.645917828125L28.41209434375,35.645917828125L28.10162134375,35.692151828125L28.10162134375,35.692151828125L27.78502434375,35.736045828125L27.78502434375,35.736045828125L27.46249234375,35.777558828124995C27.40825234375,35.784276828125,27.35377334375,35.790891828125,27.29906034375,35.797404828124996L26.96798934375,35.835250828125L26.96798934375,35.835250828125L26.63146634375,35.870593828124996C26.57493634375,35.876271828125,26.51818634375,35.881845828125,26.46122134375,35.887309828125L26.11688434375,35.918805828125C26.05907434375,35.923837828125,26.00105834375,35.928760828125,25.94284034375,35.933572828125L25.59112334375,35.961114828125005L25.59112334375,35.961114828125005L25.23472834375,35.985961828125L25.23472834375,35.985961828125L24.87384634375,36.008063828125L24.87384634375,36.008063828125L24.50867234375,36.027375828125L24.50867234375,36.027375828125L24.13939634375,36.043849828125005L24.13939634375,36.043849828125005L23.76621634375,36.057431828125004L23.76621634375,36.057431828125004L23.38932034375,36.068082828125C23.32620834375,36.069610828125,23.26294534375,36.071012828125,23.19954334375,36.072291828125L22.81744034375,36.078447828125C22.75348134375,36.079221828125,22.68938834375,36.079866828125,22.62516434375,36.080382828124996L22.238286343749998,36.081937828125L22.238286343749998,36.081937828125L21.85140934375,36.080382828124996C21.78718534375,36.079866828125,21.72309334375,36.079221828125,21.65913434375,36.078447828125L21.27703134375,36.072291828125C21.213627343749998,36.071012828125,21.15036634375,36.069610828125,21.087251343749998,36.068082828125L20.71035634375,36.057431828125004L20.71035634375,36.057431828125004L20.337176343750002,36.043849828125005L20.337176343750002,36.043849828125005L19.967902343749998,36.027375828125L19.967902343749998,36.027375828125L19.60272734375,36.008063828125L19.60272734375,36.008063828125L19.241846343749998,35.985961828125L19.241846343749998,35.985961828125L18.88544934375,35.961114828125005L18.88544934375,35.961114828125005L18.53373234375,35.933572828125L18.53373234375,35.933572828125L18.18688634375,35.903382828125004C18.12949634375,35.898131828125,18.07231634375,35.892774828125,18.015351343749998,35.887309828125L17.67617634375,35.853238828125C17.62008734375,35.847346828125,17.56422234375,35.841352828125,17.50858434375,35.835250828125L17.17751334375,35.797404828124996L17.17751334375,35.797404828124996L16.852086343750003,35.757102828125L16.852086343750003,35.757102828125L16.532496343749997,35.714393828125L16.532496343749997,35.714393828125L16.218935943749997,35.669324828125C16.16718964375,35.661618828125,16.11570164375,35.653815828125005,16.06447794375,35.645917828125L15.76032544375,35.597398828125L15.76032544375,35.597398828125L15.46268554375,35.546636828125C15.41363234375,35.537992828125,15.36485864375,35.529256828125,15.31636814375,35.520431828125L15.02885914375,35.466399828125C14.98151874375,35.457217828124996,14.93447014375,35.447946828125,14.88771624375,35.438586828125L14.61077304375,35.381393828125L14.61077304375,35.381393828125L14.341115043750001,35.322148828124995C14.29678964375,35.312108828125005,14.252775643749999,35.301984828125,14.20907734375,35.291776828124995L13.95070884375,35.229550828125C13.90828944375,35.219016828125,13.86619334375,35.208404828125,13.82442574375,35.197711828125L13.57778024375,35.132611828125L13.57778024375,35.132611828125L13.33919284375,35.065652828124996C13.30010984375,35.054341828125004,13.26137164375,35.042953828125,13.222980543750001,35.031491828125L12.99684094375,34.961839828125C12.92287304375,34.938329828125,12.85032894375,34.914531828125,12.77924064375,34.890449828125L12.57037304375,34.817371828125005C12.50222734375,34.792735828125004,12.435569243749999,34.767825828125,12.37043144375,34.742650828125L12.17960884375,34.666337828124995C11.15551524375,34.242322828125,10.55395274375,33.748189828125,10.519452543749999,33.219829828125L10.51788234375,33.171703828125004L6.39990234375,12.800048828125Z" fill-rule="evenodd" fill="url(#master_svg4_28_15355)" fill-opacity="1" style="opacity:0.699999988079071;"/><ellipse cx="22.399988174438477" cy="31.21274995803833" rx="9.367273330688477" ry="2.49448823928833" fill="url(#master_svg5_2_2394)" fill-opacity="1" style="opacity:0.6000000238418579;"/><ellipse cx="31.15631926059723" cy="27.647303700447083" rx="0.610909104347229" ry="0.6236220598220825" fill="#EDD505" fill-opacity="1"/><ellipse cx="33.39653053879738" cy="25.77634373307228" rx="0.40727272629737854" ry="0.4157480299472809" fill="#EDD505" fill-opacity="1"/><ellipse cx="27.08356535434723" cy="31.804774403572083" rx="0.610909104347229" ry="0.6236220598220825" fill="#EDD505" fill-opacity="1"/><ellipse cx="14.662155538797379" cy="30.76535740494728" rx="0.40727272629737854" ry="0.4157480299472809" fill="#EDD505" fill-opacity="1"/><ellipse cx="12.421944260597229" cy="27.647303700447083" rx="0.610909104347229" ry="0.6236220598220825" fill="#EDD505" fill-opacity="1"/><ellipse cx="16.08742542564869" cy="12.68028612434864" rx="0.20363636314868927" ry="0.20787401497364044" fill="#FFFFFF" fill-opacity="1"/><ellipse cx="30.626910895109177" cy="8.813839048147202" rx="0.48872730135917664" ry="0.49889764189720154" fill="#EDD505" fill-opacity="1"/><ellipse cx="28.10160866379738" cy="4.573218733072281" rx="0.40727272629737854" ry="0.4157480299472809" fill="#EDD505" fill-opacity="1"/><ellipse cx="31.97072620689869" cy="0.20787401497364044" rx="0.20363636314868927" ry="0.20787401497364044" fill="#EDD505" fill-opacity="1"/><g clip-path="url(#master_svg6_28_15792)"><path d="M21.9980717,20.505226999999998C21.9980707,18.022832,24.013222,16.0104523,26.499035,16.0104523C28.984851,16.0104523,31,18.022832,31,20.505226999999998C31,22.987622,28.984851,25,26.499035,25C24.013222,25,21.9980707,22.987622,21.9980717,20.505226999999998ZM25.856040999999998,17.936785L25.856040999999998,20.505226999999998C25.857534,20.675784999999998,25.925854,20.838974999999998,26.046369,20.959841L27.332356,22.244062C27.580868000000002,22.499679999999998,27.991754999999998,22.499679999999998,28.240266,22.244062C28.363708000000003,22.12624,28.432636000000002,21.962531,28.430594,21.792018C28.431418,21.621745,28.362685,21.4585,28.240266,21.339972L27.144604,20.243248L27.144604,17.939354C27.144604,17.584725,26.856725,17.297243,26.501607999999997,17.297243C26.146492000000002,17.297243,25.858614,17.584725,25.858614,17.939354L25.856040999999998,17.936785ZM14.0442238,23.715778C13.46780962,23.715071,13.00071024179,23.248613,13,22.672992999999998C13.042683285,19.612257,14.9879488,16.9012384,17.8764739,15.876895C15.7038713,14.3725352,15.126354899999999,11.4138503,16.5741148,9.204760799999999C18.0218763,6.9956713193,20.9681234,6.33998913,23.218201999999998,7.72613114C25.468280999999998,9.1122739,26.203464,12.0358691,24.876117,14.3191352C20.7504821,15.3531876,18.7881689,20.065148999999998,20.9628496,23.715778L14.0442238,23.715778Z" fill="url(#master_svg8_28_15575)" fill-opacity="1" filter="url(#master_svg7_28_15793)"/></g></svg>